# MagicaVoxel @ Ephtracy

# group
o 

# material
mtllib skull.mtl
usemtl palette

# normals
vn -1 0 0
vn 1 0 0
vn 0 0 1
vn 0 0 -1
vn 0 -1 0
vn 0 1 0

# texcoords
vt 0.396484 0.5
vt 0.955078 0.5
vt 0.962891 0.5
vt 0.994141 0.5

# verts
v 0 1.9 -1.3
v 0 1.9 -1.5
v 0 2.1 -1.3
v 0 2.1 -1.5
v 0.2 2.1 -1.3
v 0.2 2.1 -1.5
v 0.2 2.5 -1.3
v 0.2 2.5 -1.5
v 0.6 1.7 -1.3
v 0.6 1.7 -1.5
v 0.6 1.9 -1.3
v 0.6 1.9 -1.5
v 0.6 2.1 -1.3
v 0.6 2.1 -1.5
v 0.6 2.3 -1.3
v 0.6 2.3 -1.5
v 0.8 1.3 -0.9
v 0.8 1.3 -1.1
v 0.8 1.3 -1.7
v 0.8 1.5 -0.9
v 0.8 1.5 -1.1
v 0.8 1.5 -1.3
v 0.8 1.5 -1.5
v 0.8 1.5 -1.7
v 0.8 1.6 -1.1
v 0.8 1.6 -1.3
v 0.8 1.7 -1.3
v 0.8 1.7 -1.5
v 0.9 1.6 -1.1
v 0.9 1.6 -1.3
v 0.9 1.7 -1.1
v 0.9 1.7 -1.3
v 1 1.1 -0.3
v 1 1.1 -0.6
v 1 1.3 -0.3
v 1 1.3 -0.4
v 1 1.3 -1.7
v 1 1.3 -1.9
v 1 1.4 -0.4
v 1 1.4 -0.6
v 1 1.4 -0.7
v 1 1.5 -0.6
v 1 1.5 -0.7
v 1 1.5 -0.9
v 1 1.5 -1.1
v 1 1.5 -1.5
v 1 1.5 -1.7
v 1 1.5 -1.9
v 1 1.7 -0.9
v 1 1.7 -1.1
v 1 1.7 -1.3
v 1 1.7 -1.5
v 1 1.7 -1.7
v 1 1.8 -1.1
v 1 1.8 -1.3
v 1.1 1.1 -0.2
v 1.1 1.1 -0.3
v 1.1 1.3 -0.2
v 1.1 1.3 -0.3
v 1.1 1.3 -0.4
v 1.1 1.3 -0.6
v 1.1 1.3 -0.9
v 1.1 1.4 -0.3
v 1.1 1.4 -0.4
v 1.1 1.4 -0.5
v 1.1 1.4 -0.6
v 1.1 1.4 -0.7
v 1.1 1.5 -0.5
v 1.1 1.5 -0.6
v 1.1 1.5 -0.7
v 1.1 1.5 -0.9
v 1.2 1 0
v 1.2 1 -0.6
v 1.2 1.1 0
v 1.2 1.1 -0.2
v 1.2 1.1 -0.6
v 1.2 1.3 0
v 1.2 1.3 -0.2
v 1.2 1.5 -0.6
v 1.2 1.5 -0.9
v 1.2 1.6 -0.6
v 1.2 1.6 -0.8
v 1.2 1.7 -0.8
v 1.2 1.7 -0.9
v 1.3 1.3 -0.1
v 1.3 1.3 -0.2
v 1.3 1.4 -0.1
v 1.3 1.4 -0.2
v 1.3 1.6 -0.7
v 1.3 1.6 -0.8
v 1.3 1.7 -0.7
v 1.3 1.7 -0.8
v 1.5 1.1 -0.1
v 1.5 1.1 -0.2
v 1.5 1.2 -0.1
v 1.5 1.2 -0.2
v 1.5 1.7 -1.1
v 1.5 1.7 -1.3
v 1.5 1.8 -1.1
v 1.5 1.8 -1.3
v 1.6 1.3 -0.6
v 1.6 1.3 -0.9
v 1.6 1.4 -0.6
v 1.6 1.4 -0.9
v 1.7 1.3 -0.9
v 1.7 1.3 -1.1
v 1.7 1.3 -1.7
v 1.7 1.4 -0.9
v 1.7 1.4 -1.1
v 1.7 1.4 -1.5
v 1.7 1.4 -1.6
v 1.7 1.4 -1.7
v 1.7 1.5 -1.5
v 1.7 1.5 -1.6
v 1.8 1.7 -1.3
v 1.8 1.7 -1.5
v 1.8 1.8 -1.3
v 1.8 1.9 -1.3
v 1.8 1.9 -1.5
v 1.9 1.9 -1.3
v 1.9 1.9 -1.5
v 1.9 2.3 -1.3
v 1.9 2.3 -1.5
v 2.2 1.9 -1.3
v 2.2 1.9 -1.5
v 2.2 2.1 -1.3
v 2.2 2.1 -1.5
v 2.4 2.1 -1.3
v 2.4 2.1 -1.5
v 2.4 2.5 -1.3
v 2.4 2.5 -1.5
v 0.4 2.1 -1.3
v 0.4 2.1 -1.5
v 0.4 2.5 -1.3
v 0.4 2.5 -1.5
v 0.8 1.9 -1.3
v 0.8 1.9 -1.5
v 0.8 2.3 -1.3
v 0.8 2.3 -1.5
v 1 1.7 -1.3
v 1 1.7 -1.5
v 1 1.8 -1.3
v 1 1.9 -1.3
v 1 1.9 -1.5
v 1.1 1.3 -0.9
v 1.1 1.3 -1.1
v 1.1 1.3 -1.7
v 1.1 1.4 -0.9
v 1.1 1.4 -1.1
v 1.1 1.4 -1.5
v 1.1 1.4 -1.6
v 1.1 1.4 -1.7
v 1.1 1.5 -1.5
v 1.1 1.5 -1.6
v 1.2 1.3 -0.6
v 1.2 1.3 -0.9
v 1.2 1.4 -0.6
v 1.2 1.4 -0.9
v 1.3 1.1 -0.1
v 1.3 1.1 -0.2
v 1.3 1.2 -0.1
v 1.3 1.2 -0.2
v 1.3 1.7 -1.1
v 1.3 1.7 -1.3
v 1.3 1.8 -1.1
v 1.3 1.8 -1.3
v 1.5 1.3 -0.1
v 1.5 1.3 -0.2
v 1.5 1.4 -0.1
v 1.5 1.4 -0.2
v 1.5 1.6 -0.7
v 1.5 1.6 -0.8
v 1.5 1.7 -0.7
v 1.5 1.7 -0.8
v 1.6 1 0
v 1.6 1 -0.6
v 1.6 1.1 0
v 1.6 1.1 -0.2
v 1.6 1.1 -0.6
v 1.6 1.3 0
v 1.6 1.3 -0.2
v 1.6 1.5 -0.6
v 1.6 1.5 -0.9
v 1.6 1.6 -0.6
v 1.6 1.6 -0.8
v 1.6 1.7 -0.8
v 1.6 1.7 -0.9
v 1.7 1.1 -0.2
v 1.7 1.1 -0.3
v 1.7 1.3 -0.2
v 1.7 1.3 -0.3
v 1.7 1.3 -0.4
v 1.7 1.3 -0.7
v 1.7 1.3 -0.9
v 1.7 1.4 -0.3
v 1.7 1.4 -0.4
v 1.7 1.4 -0.5
v 1.7 1.4 -0.7
v 1.7 1.5 -0.5
v 1.7 1.5 -0.9
v 1.8 1.1 -0.3
v 1.8 1.1 -0.6
v 1.8 1.3 -0.3
v 1.8 1.3 -0.4
v 1.8 1.3 -0.6
v 1.8 1.3 -0.7
v 1.8 1.3 -1.7
v 1.8 1.3 -1.9
v 1.8 1.4 -0.4
v 1.8 1.4 -0.7
v 1.8 1.5 -0.9
v 1.8 1.5 -1.1
v 1.8 1.5 -1.5
v 1.8 1.5 -1.7
v 1.8 1.5 -1.9
v 1.8 1.7 -0.9
v 1.8 1.7 -1.1
v 1.8 1.7 -1.3
v 1.8 1.7 -1.5
v 1.8 1.7 -1.7
v 1.8 1.8 -1.1
v 1.8 1.8 -1.3
v 1.9 1.6 -1.1
v 1.9 1.6 -1.3
v 1.9 1.7 -1.1
v 1.9 1.7 -1.3
v 2 1.3 -0.9
v 2 1.3 -1.1
v 2 1.3 -1.7
v 2 1.5 -0.9
v 2 1.5 -1.1
v 2 1.5 -1.3
v 2 1.5 -1.5
v 2 1.5 -1.7
v 2 1.6 -1.1
v 2 1.6 -1.3
v 2 1.7 -1.3
v 2 1.7 -1.5
v 2.1 1.9 -1.3
v 2.1 1.9 -1.5
v 2.1 2.3 -1.3
v 2.1 2.3 -1.5
v 2.4 1.7 -1.3
v 2.4 1.7 -1.5
v 2.4 1.9 -1.3
v 2.4 1.9 -1.5
v 2.6 1.9 -1.3
v 2.6 1.9 -1.5
v 2.6 2.1 -1.3
v 2.6 2.1 -1.5
v 2.6 2.3 -1.3
v 2.6 2.3 -1.5
v 2.6 2.5 -1.3
v 2.6 2.5 -1.5
v 2.8 2.1 -1.3
v 2.8 2.1 -1.5
v 2.8 2.3 -1.3
v 2.8 2.3 -1.5
v 1.2 1 0
v 1.2 1.1 0
v 1.2 1.3 0
v 1.6 1 0
v 1.6 1.1 0
v 1.6 1.3 0
v 1.3 1.3 -0.1
v 1.3 1.4 -0.1
v 1.5 1.3 -0.1
v 1.5 1.4 -0.1
v 1.1 1.1 -0.2
v 1.1 1.3 -0.2
v 1.2 1.1 -0.2
v 1.2 1.3 -0.2
v 1.3 1.1 -0.2
v 1.3 1.2 -0.2
v 1.5 1.1 -0.2
v 1.5 1.2 -0.2
v 1.6 1.1 -0.2
v 1.6 1.3 -0.2
v 1.7 1.1 -0.2
v 1.7 1.3 -0.2
v 1 1.1 -0.3
v 1 1.3 -0.3
v 1.1 1.1 -0.3
v 1.1 1.3 -0.3
v 1.1 1.4 -0.3
v 1.7 1.1 -0.3
v 1.7 1.3 -0.3
v 1.7 1.4 -0.3
v 1.8 1.1 -0.3
v 1.8 1.3 -0.3
v 1 1.3 -0.4
v 1 1.4 -0.4
v 1.1 1.3 -0.4
v 1.1 1.4 -0.4
v 1.7 1.3 -0.4
v 1.7 1.4 -0.4
v 1.8 1.3 -0.4
v 1.8 1.4 -0.4
v 1.1 1.4 -0.5
v 1.1 1.5 -0.5
v 1.7 1.4 -0.5
v 1.7 1.5 -0.5
v 1 1.4 -0.6
v 1 1.5 -0.6
v 1.1 1.4 -0.6
v 1.1 1.5 -0.6
v 1.2 1.5 -0.6
v 1.2 1.6 -0.6
v 1.6 1.5 -0.6
v 1.6 1.6 -0.6
v 1.3 1.6 -0.7
v 1.3 1.7 -0.7
v 1.5 1.6 -0.7
v 1.5 1.7 -0.7
v 1.2 1.6 -0.8
v 1.2 1.7 -0.8
v 1.3 1.6 -0.8
v 1.3 1.7 -0.8
v 1.5 1.6 -0.8
v 1.5 1.7 -0.8
v 1.6 1.6 -0.8
v 1.6 1.7 -0.8
v 0.8 1.3 -0.9
v 0.8 1.5 -0.9
v 1 1.5 -0.9
v 1 1.7 -0.9
v 1.1 1.3 -0.9
v 1.1 1.5 -0.9
v 1.2 1.5 -0.9
v 1.2 1.7 -0.9
v 1.6 1.5 -0.9
v 1.6 1.7 -0.9
v 1.7 1.3 -0.9
v 1.7 1.5 -0.9
v 1.8 1.5 -0.9
v 1.8 1.7 -0.9
v 2 1.3 -0.9
v 2 1.5 -0.9
v 0.8 1.5 -1.1
v 0.8 1.6 -1.1
v 0.9 1.6 -1.1
v 0.9 1.7 -1.1
v 1 1.5 -1.1
v 1 1.7 -1.1
v 1 1.8 -1.1
v 1.2 1.7 -1.1
v 1.3 1.7 -1.1
v 1.3 1.8 -1.1
v 1.5 1.7 -1.1
v 1.5 1.8 -1.1
v 1.6 1.7 -1.1
v 1.8 1.5 -1.1
v 1.8 1.7 -1.1
v 1.8 1.8 -1.1
v 1.9 1.6 -1.1
v 1.9 1.7 -1.1
v 2 1.5 -1.1
v 2 1.6 -1.1
v 0 1.9 -1.3
v 0 2.1 -1.3
v 0.2 2.1 -1.3
v 0.2 2.5 -1.3
v 0.4 2.1 -1.3
v 0.4 2.5 -1.3
v 0.6 1.7 -1.3
v 0.6 1.9 -1.3
v 0.6 2.1 -1.3
v 0.6 2.3 -1.3
v 0.8 1.6 -1.3
v 0.8 1.7 -1.3
v 0.8 1.9 -1.3
v 0.8 2.3 -1.3
v 0.9 1.6 -1.3
v 0.9 1.7 -1.3
v 1 1.7 -1.3
v 1 1.8 -1.3
v 1 1.9 -1.3
v 1.8 1.7 -1.3
v 1.8 1.8 -1.3
v 1.8 1.9 -1.3
v 1.9 1.6 -1.3
v 1.9 1.7 -1.3
v 1.9 1.9 -1.3
v 1.9 2.3 -1.3
v 2 1.6 -1.3
v 2 1.7 -1.3
v 2.1 1.9 -1.3
v 2.1 2.3 -1.3
v 2.2 1.9 -1.3
v 2.2 2.1 -1.3
v 2.4 1.7 -1.3
v 2.4 1.9 -1.3
v 2.4 2.1 -1.3
v 2.4 2.5 -1.3
v 2.6 1.9 -1.3
v 2.6 2.1 -1.3
v 2.6 2.3 -1.3
v 2.6 2.5 -1.3
v 2.8 2.1 -1.3
v 2.8 2.3 -1.3
v 1.1 1.4 -1.6
v 1.1 1.5 -1.6
v 1.7 1.4 -1.6
v 1.7 1.5 -1.6
v 1.1 1.3 -1.7
v 1.1 1.4 -1.7
v 1.7 1.3 -1.7
v 1.7 1.4 -1.7
v 1.3 1.1 -0.1
v 1.3 1.2 -0.1
v 1.5 1.1 -0.1
v 1.5 1.2 -0.1
v 1.3 1.3 -0.2
v 1.3 1.4 -0.2
v 1.5 1.3 -0.2
v 1.5 1.4 -0.2
v 1 1.1 -0.6
v 1 1.4 -0.6
v 1.1 1.3 -0.6
v 1.1 1.4 -0.6
v 1.2 1 -0.6
v 1.2 1.1 -0.6
v 1.2 1.3 -0.6
v 1.2 1.4 -0.6
v 1.6 1 -0.6
v 1.6 1.1 -0.6
v 1.6 1.3 -0.6
v 1.6 1.4 -0.6
v 1.8 1.1 -0.6
v 1.8 1.3 -0.6
v 1 1.4 -0.7
v 1 1.5 -0.7
v 1.1 1.4 -0.7
v 1.1 1.5 -0.7
v 1.7 1.3 -0.7
v 1.7 1.4 -0.7
v 1.8 1.3 -0.7
v 1.8 1.4 -0.7
v 1.1 1.3 -0.9
v 1.1 1.4 -0.9
v 1.2 1.3 -0.9
v 1.2 1.4 -0.9
v 1.6 1.3 -0.9
v 1.6 1.4 -0.9
v 1.7 1.3 -0.9
v 1.7 1.4 -0.9
v 1 1.7 -1.3
v 1 1.8 -1.3
v 1.2 1.7 -1.3
v 1.3 1.7 -1.3
v 1.3 1.8 -1.3
v 1.5 1.7 -1.3
v 1.5 1.8 -1.3
v 1.6 1.7 -1.3
v 1.8 1.7 -1.3
v 1.8 1.8 -1.3
v 0 1.9 -1.5
v 0 2.1 -1.5
v 0.2 2.1 -1.5
v 0.2 2.5 -1.5
v 0.4 2.1 -1.5
v 0.4 2.5 -1.5
v 0.6 1.7 -1.5
v 0.6 1.9 -1.5
v 0.6 2.1 -1.5
v 0.6 2.3 -1.5
v 0.8 1.5 -1.5
v 0.8 1.7 -1.5
v 0.8 1.9 -1.5
v 0.8 2.3 -1.5
v 1 1.5 -1.5
v 1 1.7 -1.5
v 1 1.9 -1.5
v 1.1 1.4 -1.5
v 1.1 1.5 -1.5
v 1.7 1.4 -1.5
v 1.7 1.5 -1.5
v 1.8 1.5 -1.5
v 1.8 1.7 -1.5
v 1.8 1.9 -1.5
v 1.9 1.9 -1.5
v 1.9 2.3 -1.5
v 2 1.5 -1.5
v 2 1.7 -1.5
v 2.1 1.9 -1.5
v 2.1 2.3 -1.5
v 2.2 1.9 -1.5
v 2.2 2.1 -1.5
v 2.4 1.7 -1.5
v 2.4 1.9 -1.5
v 2.4 2.1 -1.5
v 2.4 2.5 -1.5
v 2.6 1.9 -1.5
v 2.6 2.1 -1.5
v 2.6 2.3 -1.5
v 2.6 2.5 -1.5
v 2.8 2.1 -1.5
v 2.8 2.3 -1.5
v 0.8 1.3 -1.7
v 0.8 1.5 -1.7
v 1 1.3 -1.7
v 1 1.5 -1.7
v 1 1.7 -1.7
v 1.8 1.3 -1.7
v 1.8 1.5 -1.7
v 1.8 1.7 -1.7
v 2 1.3 -1.7
v 2 1.5 -1.7
v 1 1.3 -1.9
v 1 1.5 -1.9
v 1.8 1.3 -1.9
v 1.8 1.5 -1.9
v 1.2 1 0
v 1.6 1 0
v 1.2 1 -0.6
v 1.6 1 -0.6
v 1.1 1.1 -0.2
v 1.2 1.1 -0.2
v 1.6 1.1 -0.2
v 1.7 1.1 -0.2
v 1 1.1 -0.3
v 1.1 1.1 -0.3
v 1.7 1.1 -0.3
v 1.8 1.1 -0.3
v 1 1.1 -0.6
v 1.2 1.1 -0.6
v 1.6 1.1 -0.6
v 1.8 1.1 -0.6
v 1.3 1.2 -0.1
v 1.5 1.2 -0.1
v 1.3 1.2 -0.2
v 1.5 1.2 -0.2
v 1.1 1.3 -0.6
v 1.2 1.3 -0.6
v 1.6 1.3 -0.6
v 1.8 1.3 -0.6
v 1.7 1.3 -0.7
v 1.8 1.3 -0.7
v 0.8 1.3 -0.9
v 1.1 1.3 -0.9
v 1.2 1.3 -0.9
v 1.6 1.3 -0.9
v 1.7 1.3 -0.9
v 2 1.3 -0.9
v 0.8 1.3 -1.1
v 1.1 1.3 -1.1
v 1.7 1.3 -1.1
v 2 1.3 -1.1
v 0.8 1.3 -1.7
v 1 1.3 -1.7
v 1.1 1.3 -1.7
v 1.7 1.3 -1.7
v 1.8 1.3 -1.7
v 2 1.3 -1.7
v 1 1.3 -1.9
v 1.8 1.3 -1.9
v 1 1.4 -0.6
v 1.1 1.4 -0.6
v 1.2 1.4 -0.6
v 1.6 1.4 -0.6
v 1 1.4 -0.7
v 1.1 1.4 -0.7
v 1.1 1.4 -0.9
v 1.2 1.4 -0.9
v 1.6 1.4 -0.9
v 1.7 1.4 -0.9
v 1.1 1.4 -1.1
v 1.2 1.4 -1.1
v 1.6 1.4 -1.1
v 1.7 1.4 -1.1
v 1.1 1.4 -1.5
v 1.7 1.4 -1.5
v 1.1 1.4 -1.6
v 1.7 1.4 -1.6
v 1.1 1.4 -1.7
v 1.7 1.4 -1.7
v 1.1 1.5 -1.5
v 1.7 1.5 -1.5
v 1.1 1.5 -1.6
v 1.7 1.5 -1.6
v 0.6 1.7 -1.3
v 0.8 1.7 -1.3
v 2 1.7 -1.3
v 2.4 1.7 -1.3
v 0.6 1.7 -1.5
v 0.8 1.7 -1.5
v 2 1.7 -1.5
v 2.4 1.7 -1.5
v 0 1.9 -1.3
v 0.6 1.9 -1.3
v 2.4 1.9 -1.3
v 2.6 1.9 -1.3
v 0 1.9 -1.5
v 0.6 1.9 -1.5
v 2.4 1.9 -1.5
v 2.6 1.9 -1.5
v 2.6 2.1 -1.3
v 2.8 2.1 -1.3
v 2.6 2.1 -1.5
v 2.8 2.1 -1.5
v 1.3 1.1 -0.1
v 1.5 1.1 -0.1
v 1.3 1.1 -0.2
v 1.5 1.1 -0.2
v 1.2 1.3 0
v 1.6 1.3 0
v 1.3 1.3 -0.1
v 1.5 1.3 -0.1
v 1.1 1.3 -0.2
v 1.2 1.3 -0.2
v 1.3 1.3 -0.2
v 1.5 1.3 -0.2
v 1.6 1.3 -0.2
v 1.7 1.3 -0.2
v 1 1.3 -0.3
v 1.1 1.3 -0.3
v 1.7 1.3 -0.3
v 1.8 1.3 -0.3
v 1 1.3 -0.4
v 1.1 1.3 -0.4
v 1.7 1.3 -0.4
v 1.8 1.3 -0.4
v 1.3 1.4 -0.1
v 1.5 1.4 -0.1
v 1.3 1.4 -0.2
v 1.5 1.4 -0.2
v 1.1 1.4 -0.3
v 1.7 1.4 -0.3
v 1 1.4 -0.4
v 1.1 1.4 -0.4
v 1.7 1.4 -0.4
v 1.8 1.4 -0.4
v 1.1 1.4 -0.5
v 1.7 1.4 -0.5
v 1 1.4 -0.6
v 1.1 1.4 -0.6
v 1.7 1.4 -0.7
v 1.8 1.4 -0.7
v 1.1 1.5 -0.5
v 1.7 1.5 -0.5
v 1 1.5 -0.6
v 1.1 1.5 -0.6
v 1.2 1.5 -0.6
v 1.6 1.5 -0.6
v 1 1.5 -0.7
v 1.1 1.5 -0.7
v 0.8 1.5 -0.9
v 1 1.5 -0.9
v 1.1 1.5 -0.9
v 1.2 1.5 -0.9
v 1.6 1.5 -0.9
v 1.7 1.5 -0.9
v 1.8 1.5 -0.9
v 2 1.5 -0.9
v 0.8 1.5 -1.1
v 1 1.5 -1.1
v 1.8 1.5 -1.1
v 2 1.5 -1.1
v 0.8 1.5 -1.5
v 1 1.5 -1.5
v 1.8 1.5 -1.5
v 2 1.5 -1.5
v 0.8 1.5 -1.7
v 1 1.5 -1.7
v 1.8 1.5 -1.7
v 2 1.5 -1.7
v 1 1.5 -1.9
v 1.8 1.5 -1.9
v 1.2 1.6 -0.6
v 1.6 1.6 -0.6
v 1.3 1.6 -0.7
v 1.5 1.6 -0.7
v 1.2 1.6 -0.8
v 1.3 1.6 -0.8
v 1.5 1.6 -0.8
v 1.6 1.6 -0.8
v 0.8 1.6 -1.1
v 0.9 1.6 -1.1
v 1.9 1.6 -1.1
v 2 1.6 -1.1
v 0.8 1.6 -1.3
v 0.9 1.6 -1.3
v 1.9 1.6 -1.3
v 2 1.6 -1.3
v 1.3 1.7 -0.7
v 1.5 1.7 -0.7
v 1.2 1.7 -0.8
v 1.3 1.7 -0.8
v 1.5 1.7 -0.8
v 1.6 1.7 -0.8
v 1 1.7 -0.9
v 1.2 1.7 -0.9
v 1.6 1.7 -0.9
v 1.8 1.7 -0.9
v 0.9 1.7 -1.1
v 1 1.7 -1.1
v 1.2 1.7 -1.1
v 1.3 1.7 -1.1
v 1.5 1.7 -1.1
v 1.6 1.7 -1.1
v 1.8 1.7 -1.1
v 1.9 1.7 -1.1
v 0.9 1.7 -1.3
v 1 1.7 -1.3
v 1.2 1.7 -1.3
v 1.3 1.7 -1.3
v 1.5 1.7 -1.3
v 1.6 1.7 -1.3
v 1.8 1.7 -1.3
v 1.9 1.7 -1.3
v 1 1.7 -1.5
v 1.2 1.7 -1.5
v 1.6 1.7 -1.5
v 1.8 1.7 -1.5
v 1 1.7 -1.7
v 1.8 1.7 -1.7
v 1 1.8 -1.1
v 1.3 1.8 -1.1
v 1.5 1.8 -1.1
v 1.8 1.8 -1.1
v 1 1.8 -1.3
v 1.3 1.8 -1.3
v 1.5 1.8 -1.3
v 1.8 1.8 -1.3
v 0.8 1.9 -1.3
v 1 1.9 -1.3
v 1.8 1.9 -1.3
v 1.9 1.9 -1.3
v 2.1 1.9 -1.3
v 2.2 1.9 -1.3
v 0.8 1.9 -1.5
v 1 1.9 -1.5
v 1.8 1.9 -1.5
v 1.9 1.9 -1.5
v 2.1 1.9 -1.5
v 2.2 1.9 -1.5
v 0 2.1 -1.3
v 0.2 2.1 -1.3
v 0.4 2.1 -1.3
v 0.6 2.1 -1.3
v 2.2 2.1 -1.3
v 2.4 2.1 -1.3
v 0 2.1 -1.5
v 0.2 2.1 -1.5
v 0.4 2.1 -1.5
v 0.6 2.1 -1.5
v 2.2 2.1 -1.5
v 2.4 2.1 -1.5
v 0.6 2.3 -1.3
v 0.8 2.3 -1.3
v 1.9 2.3 -1.3
v 2.1 2.3 -1.3
v 2.6 2.3 -1.3
v 2.8 2.3 -1.3
v 0.6 2.3 -1.5
v 0.8 2.3 -1.5
v 1.9 2.3 -1.5
v 2.1 2.3 -1.5
v 2.6 2.3 -1.5
v 2.8 2.3 -1.5
v 0.2 2.5 -1.3
v 0.4 2.5 -1.3
v 2.4 2.5 -1.3
v 2.6 2.5 -1.3
v 0.2 2.5 -1.5
v 0.4 2.5 -1.5
v 2.4 2.5 -1.5
v 2.6 2.5 -1.5

# faces
f 3/1/1 2/1/1 1/1/1
f 4/1/1 2/1/1 3/1/1
f 7/1/1 6/1/1 5/1/1
f 8/1/1 6/1/1 7/1/1
f 11/1/1 10/1/1 9/1/1
f 12/1/1 10/1/1 11/1/1
f 15/1/1 14/1/1 13/1/1
f 16/1/1 14/1/1 15/1/1
f 20/4/1 18/4/1 17/4/1
f 21/3/1 19/3/1 18/3/1
f 21/4/1 18/4/1 20/4/1
f 22/3/1 19/3/1 21/3/1
f 23/3/1 19/3/1 22/3/1
f 24/3/1 19/3/1 23/3/1
f 25/3/1 22/3/1 21/3/1
f 26/1/1 23/1/1 22/1/1
f 26/3/1 22/3/1 25/3/1
f 27/1/1 23/1/1 26/1/1
f 28/1/1 23/1/1 27/1/1
f 31/3/1 30/3/1 29/3/1
f 32/3/1 30/3/1 31/3/1
f 35/3/1 34/3/1 33/3/1
f 36/3/1 34/3/1 35/3/1
f 39/3/1 34/3/1 36/3/1
f 40/3/1 34/3/1 39/3/1
f 42/3/1 41/3/1 40/3/1
f 43/3/1 41/3/1 42/3/1
f 47/3/1 38/3/1 37/3/1
f 48/3/1 38/3/1 47/3/1
f 49/4/1 45/4/1 44/4/1
f 50/4/1 45/4/1 49/4/1
f 52/3/1 47/3/1 46/3/1
f 53/3/1 47/3/1 52/3/1
f 54/3/1 51/3/1 50/3/1
f 55/3/1 51/3/1 54/3/1
f 58/3/1 57/3/1 56/3/1
f 59/3/1 57/3/1 58/3/1
f 63/3/1 60/3/1 59/3/1
f 64/3/1 60/3/1 63/3/1
f 66/3/1 62/3/1 61/3/1
f 67/3/1 62/3/1 66/3/1
f 68/3/1 66/3/1 65/3/1
f 69/3/1 66/3/1 68/3/1
f 70/3/1 62/3/1 67/3/1
f 71/3/1 62/3/1 70/3/1
f 74/3/1 73/3/1 72/3/1
f 75/3/1 73/3/1 74/3/1
f 76/3/1 73/3/1 75/3/1
f 77/2/1 75/2/1 74/2/1
f 78/2/1 75/2/1 77/2/1
f 81/3/1 80/3/1 79/3/1
f 82/3/1 80/3/1 81/3/1
f 83/3/1 80/3/1 82/3/1
f 84/3/1 80/3/1 83/3/1
f 87/2/1 86/2/1 85/2/1
f 88/2/1 86/2/1 87/2/1
f 91/3/1 90/3/1 89/3/1
f 92/3/1 90/3/1 91/3/1
f 95/2/1 94/2/1 93/2/1
f 96/2/1 94/2/1 95/2/1
f 99/3/1 98/3/1 97/3/1
f 100/3/1 98/3/1 99/3/1
f 103/3/1 102/3/1 101/3/1
f 104/3/1 102/3/1 103/3/1
f 108/4/1 106/4/1 105/4/1
f 109/3/1 107/3/1 106/3/1
f 109/4/1 106/4/1 108/4/1
f 110/3/1 107/3/1 109/3/1
f 111/3/1 107/3/1 110/3/1
f 112/3/1 107/3/1 111/3/1
f 113/3/1 111/3/1 110/3/1
f 114/3/1 111/3/1 113/3/1
f 117/1/1 116/1/1 115/1/1
f 118/1/1 116/1/1 117/1/1
f 119/1/1 116/1/1 118/1/1
f 122/1/1 121/1/1 120/1/1
f 123/1/1 121/1/1 122/1/1
f 126/1/1 125/1/1 124/1/1
f 127/1/1 125/1/1 126/1/1
f 130/1/1 129/1/1 128/1/1
f 131/1/1 129/1/1 130/1/1
f 132/1/2 133/1/2 134/1/2
f 134/1/2 133/1/2 135/1/2
f 136/1/2 137/1/2 138/1/2
f 138/1/2 137/1/2 139/1/2
f 140/1/2 141/1/2 142/1/2
f 142/1/2 141/1/2 143/1/2
f 143/1/2 141/1/2 144/1/2
f 145/4/2 146/4/2 148/4/2
f 146/3/2 147/3/2 149/3/2
f 148/4/2 146/4/2 149/4/2
f 149/3/2 147/3/2 150/3/2
f 150/3/2 147/3/2 151/3/2
f 151/3/2 147/3/2 152/3/2
f 150/3/2 151/3/2 153/3/2
f 153/3/2 151/3/2 154/3/2
f 155/3/2 156/3/2 157/3/2
f 157/3/2 156/3/2 158/3/2
f 159/2/2 160/2/2 161/2/2
f 161/2/2 160/2/2 162/2/2
f 163/3/2 164/3/2 165/3/2
f 165/3/2 164/3/2 166/3/2
f 167/2/2 168/2/2 169/2/2
f 169/2/2 168/2/2 170/2/2
f 171/3/2 172/3/2 173/3/2
f 173/3/2 172/3/2 174/3/2
f 175/3/2 176/3/2 177/3/2
f 177/3/2 176/3/2 178/3/2
f 178/3/2 176/3/2 179/3/2
f 177/2/2 178/2/2 180/2/2
f 180/2/2 178/2/2 181/2/2
f 182/3/2 183/3/2 184/3/2
f 184/3/2 183/3/2 185/3/2
f 185/3/2 183/3/2 186/3/2
f 186/3/2 183/3/2 187/3/2
f 188/3/2 189/3/2 190/3/2
f 190/3/2 189/3/2 191/3/2
f 191/3/2 192/3/2 195/3/2
f 195/3/2 192/3/2 196/3/2
f 193/3/2 194/3/2 198/3/2
f 197/3/2 198/3/2 199/3/2
f 198/3/2 194/3/2 200/3/2
f 199/3/2 198/3/2 200/3/2
f 201/3/2 202/3/2 203/3/2
f 203/3/2 202/3/2 204/3/2
f 204/3/2 202/3/2 205/3/2
f 204/3/2 205/3/2 209/3/2
f 205/3/2 206/3/2 209/3/2
f 209/3/2 206/3/2 210/3/2
f 207/3/2 208/3/2 214/3/2
f 214/3/2 208/3/2 215/3/2
f 211/4/2 212/4/2 216/4/2
f 216/4/2 212/4/2 217/4/2
f 213/3/2 214/3/2 219/3/2
f 219/3/2 214/3/2 220/3/2
f 217/3/2 218/3/2 221/3/2
f 221/3/2 218/3/2 222/3/2
f 223/3/2 224/3/2 225/3/2
f 225/3/2 224/3/2 226/3/2
f 227/4/2 228/4/2 230/4/2
f 228/3/2 229/3/2 231/3/2
f 230/4/2 228/4/2 231/4/2
f 231/3/2 229/3/2 232/3/2
f 232/3/2 229/3/2 233/3/2
f 233/3/2 229/3/2 234/3/2
f 231/3/2 232/3/2 235/3/2
f 232/1/2 233/1/2 236/1/2
f 235/3/2 232/3/2 236/3/2
f 236/1/2 233/1/2 237/1/2
f 237/1/2 233/1/2 238/1/2
f 239/1/2 240/1/2 241/1/2
f 241/1/2 240/1/2 242/1/2
f 243/1/2 244/1/2 245/1/2
f 245/1/2 244/1/2 246/1/2
f 247/1/2 248/1/2 249/1/2
f 249/1/2 248/1/2 250/1/2
f 251/1/2 252/1/2 253/1/2
f 253/1/2 252/1/2 254/1/2
f 255/1/2 256/1/2 257/1/2
f 257/1/2 256/1/2 258/1/2
f 262/3/3 260/3/3 259/3/3
f 263/2/3 261/2/3 260/2/3
f 263/3/3 260/3/3 262/3/3
f 264/2/3 261/2/3 263/2/3
f 267/2/3 266/2/3 265/2/3
f 268/2/3 266/2/3 267/2/3
f 271/3/3 270/3/3 269/3/3
f 272/3/3 270/3/3 271/3/3
f 275/3/3 274/3/3 273/3/3
f 276/3/3 274/3/3 275/3/3
f 279/3/3 278/3/3 277/3/3
f 280/3/3 278/3/3 279/3/3
f 283/3/3 282/3/3 281/3/3
f 284/3/3 282/3/3 283/3/3
f 287/3/3 285/3/3 284/3/3
f 288/3/3 285/3/3 287/3/3
f 289/3/3 287/3/3 286/3/3
f 290/3/3 287/3/3 289/3/3
f 293/3/3 292/3/3 291/3/3
f 294/3/3 292/3/3 293/3/3
f 297/3/3 296/3/3 295/3/3
f 298/3/3 296/3/3 297/3/3
f 301/3/3 300/3/3 299/3/3
f 302/3/3 300/3/3 301/3/3
f 305/3/3 304/3/3 303/3/3
f 306/3/3 304/3/3 305/3/3
f 309/3/3 308/3/3 307/3/3
f 310/3/3 308/3/3 309/3/3
f 313/3/3 312/3/3 311/3/3
f 314/3/3 312/3/3 313/3/3
f 317/3/3 316/3/3 315/3/3
f 318/3/3 316/3/3 317/3/3
f 321/3/3 320/3/3 319/3/3
f 322/3/3 320/3/3 321/3/3
f 325/4/3 324/4/3 323/4/3
f 327/4/3 325/4/3 323/4/3
f 327/4/3 326/4/3 325/4/3
f 328/4/3 326/4/3 327/4/3
f 329/4/3 326/4/3 328/4/3
f 330/4/3 326/4/3 329/4/3
f 334/4/3 332/4/3 331/4/3
f 335/4/3 332/4/3 334/4/3
f 335/4/3 334/4/3 333/4/3
f 336/4/3 332/4/3 335/4/3
f 337/4/3 335/4/3 333/4/3
f 338/4/3 335/4/3 337/4/3
f 341/3/3 340/3/3 339/3/3
f 343/3/3 341/3/3 339/3/3
f 343/3/3 342/3/3 341/3/3
f 344/3/3 342/3/3 343/3/3
f 346/3/3 345/3/3 344/3/3
f 347/3/3 345/3/3 346/3/3
f 348/3/3 345/3/3 347/3/3
f 351/3/3 350/3/3 349/3/3
f 353/3/3 350/3/3 351/3/3
f 354/3/3 350/3/3 353/3/3
f 355/3/3 353/3/3 352/3/3
f 356/3/3 353/3/3 355/3/3
f 357/3/3 355/3/3 352/3/3
f 358/3/3 355/3/3 357/3/3
f 361/1/3 360/1/3 359/1/3
f 363/1/3 361/1/3 359/1/3
f 363/1/3 362/1/3 361/1/3
f 364/1/3 362/1/3 363/1/3
f 366/1/3 363/1/3 359/1/3
f 367/1/3 363/1/3 366/1/3
f 370/1/3 366/1/3 365/1/3
f 370/1/3 368/1/3 367/1/3
f 370/1/3 367/1/3 366/1/3
f 371/1/3 368/1/3 370/1/3
f 372/1/3 368/1/3 371/1/3
f 373/1/3 370/1/3 369/1/3
f 373/1/3 371/1/3 370/1/3
f 374/1/3 371/1/3 373/1/3
f 375/1/3 371/1/3 374/1/3
f 376/1/3 371/1/3 375/1/3
f 377/1/3 371/1/3 376/1/3
f 382/1/3 379/1/3 378/1/3
f 382/1/3 380/1/3 379/1/3
f 383/1/3 380/1/3 382/1/3
f 385/1/3 383/1/3 382/1/3
f 385/1/3 384/1/3 383/1/3
f 385/1/3 382/1/3 381/1/3
f 386/1/3 384/1/3 385/1/3
f 387/1/3 384/1/3 386/1/3
f 388/1/3 384/1/3 387/1/3
f 389/1/3 387/1/3 386/1/3
f 391/1/3 389/1/3 386/1/3
f 391/1/3 390/1/3 389/1/3
f 392/1/3 390/1/3 391/1/3
f 393/1/3 390/1/3 392/1/3
f 395/1/3 393/1/3 392/1/3
f 395/1/3 394/1/3 393/1/3
f 396/1/3 394/1/3 395/1/3
f 397/1/3 394/1/3 396/1/3
f 398/1/3 394/1/3 397/1/3
f 399/1/3 397/1/3 396/1/3
f 400/1/3 397/1/3 399/1/3
f 403/3/3 402/3/3 401/3/3
f 404/3/3 402/3/3 403/3/3
f 407/3/3 406/3/3 405/3/3
f 408/3/3 406/3/3 407/3/3
f 409/2/4 410/2/4 411/2/4
f 411/2/4 410/2/4 412/2/4
f 413/2/4 414/2/4 415/2/4
f 415/2/4 414/2/4 416/2/4
f 417/3/4 418/3/4 419/3/4
f 419/3/4 418/3/4 420/3/4
f 417/3/4 419/3/4 422/3/4
f 422/3/4 419/3/4 423/3/4
f 421/3/4 422/3/4 425/3/4
f 423/3/4 424/3/4 425/3/4
f 422/3/4 423/3/4 425/3/4
f 425/3/4 424/3/4 426/3/4
f 426/3/4 424/3/4 427/3/4
f 427/3/4 424/3/4 428/3/4
f 426/3/4 427/3/4 429/3/4
f 429/3/4 427/3/4 430/3/4
f 431/3/4 432/3/4 433/3/4
f 433/3/4 432/3/4 434/3/4
f 435/3/4 436/3/4 437/3/4
f 437/3/4 436/3/4 438/3/4
f 439/3/4 440/3/4 441/3/4
f 441/3/4 440/3/4 442/3/4
f 443/3/4 444/3/4 445/3/4
f 445/3/4 444/3/4 446/3/4
f 447/3/4 448/3/4 449/3/4
f 449/3/4 448/3/4 450/3/4
f 450/3/4 448/3/4 451/3/4
f 452/3/4 453/3/4 454/3/4
f 454/3/4 453/3/4 455/3/4
f 455/3/4 453/3/4 456/3/4
f 457/1/4 458/1/4 459/1/4
f 457/1/4 459/1/4 461/1/4
f 459/1/4 460/1/4 461/1/4
f 461/1/4 460/1/4 462/1/4
f 457/1/4 461/1/4 464/1/4
f 464/1/4 461/1/4 465/1/4
f 463/1/4 464/1/4 468/1/4
f 465/1/4 466/1/4 468/1/4
f 464/1/4 465/1/4 468/1/4
f 468/1/4 466/1/4 469/1/4
f 469/1/4 466/1/4 470/1/4
f 467/1/4 468/1/4 471/1/4
f 468/1/4 469/1/4 471/1/4
f 471/1/4 469/1/4 472/1/4
f 472/1/4 469/1/4 473/1/4
f 474/3/4 475/3/4 476/3/4
f 476/3/4 475/3/4 477/3/4
f 478/1/4 479/1/4 481/1/4
f 479/1/4 480/1/4 481/1/4
f 478/1/4 481/1/4 483/1/4
f 481/1/4 482/1/4 483/1/4
f 483/1/4 482/1/4 484/1/4
f 484/1/4 482/1/4 485/1/4
f 485/1/4 482/1/4 486/1/4
f 484/1/4 485/1/4 487/1/4
f 484/1/4 487/1/4 489/1/4
f 487/1/4 488/1/4 489/1/4
f 489/1/4 488/1/4 490/1/4
f 490/1/4 488/1/4 491/1/4
f 490/1/4 491/1/4 493/1/4
f 491/1/4 492/1/4 493/1/4
f 493/1/4 492/1/4 494/1/4
f 494/1/4 492/1/4 495/1/4
f 495/1/4 492/1/4 496/1/4
f 494/1/4 495/1/4 497/1/4
f 497/1/4 495/1/4 498/1/4
f 499/3/4 500/3/4 501/3/4
f 501/3/4 500/3/4 502/3/4
f 502/3/4 503/3/4 505/3/4
f 505/3/4 503/3/4 506/3/4
f 504/3/4 505/3/4 507/3/4
f 507/3/4 505/3/4 508/3/4
f 509/3/4 510/3/4 511/3/4
f 511/3/4 510/3/4 512/3/4
f 515/3/5 514/3/5 513/3/5
f 516/3/5 514/3/5 515/3/5
f 522/3/5 518/3/5 517/3/5
f 523/3/5 520/3/5 519/3/5
f 525/3/5 522/3/5 521/3/5
f 526/3/5 518/3/5 522/3/5
f 526/3/5 522/3/5 525/3/5
f 527/3/5 524/3/5 523/3/5
f 527/3/5 523/3/5 519/3/5
f 528/3/5 524/3/5 527/3/5
f 531/2/5 530/2/5 529/2/5
f 532/2/5 530/2/5 531/2/5
f 537/3/5 536/3/5 535/3/5
f 538/3/5 536/3/5 537/3/5
f 540/3/5 534/3/5 533/3/5
f 541/3/5 534/3/5 540/3/5
f 542/3/5 537/3/5 535/3/5
f 543/3/5 537/3/5 542/3/5
f 545/4/5 540/4/5 539/4/5
f 546/4/5 540/4/5 545/4/5
f 547/4/5 544/4/5 543/4/5
f 548/4/5 544/4/5 547/4/5
f 549/3/5 546/3/5 545/3/5
f 550/3/5 546/3/5 549/3/5
f 551/3/5 546/3/5 550/3/5
f 552/3/5 548/3/5 547/3/5
f 553/3/5 548/3/5 552/3/5
f 554/3/5 548/3/5 553/3/5
f 555/3/5 551/3/5 550/3/5
f 555/3/5 553/3/5 552/3/5
f 555/3/5 552/3/5 551/3/5
f 556/3/5 553/3/5 555/3/5
f 561/3/5 558/3/5 557/3/5
f 562/3/5 558/3/5 561/3/5
f 564/3/5 560/3/5 559/3/5
f 565/3/5 560/3/5 564/3/5
f 567/4/5 564/4/5 563/4/5
f 568/3/5 565/3/5 564/3/5
f 568/4/5 564/4/5 567/4/5
f 569/4/5 566/4/5 565/4/5
f 569/3/5 565/3/5 568/3/5
f 570/4/5 566/4/5 569/4/5
f 571/3/5 568/3/5 567/3/5
f 571/3/5 569/3/5 568/3/5
f 571/3/5 570/3/5 569/3/5
f 572/3/5 570/3/5 571/3/5
f 575/3/5 574/3/5 573/3/5
f 576/3/5 574/3/5 575/3/5
f 579/3/5 578/3/5 577/3/5
f 580/3/5 578/3/5 579/3/5
f 585/1/5 582/1/5 581/1/5
f 586/1/5 582/1/5 585/1/5
f 587/1/5 584/1/5 583/1/5
f 588/1/5 584/1/5 587/1/5
f 593/1/5 590/1/5 589/1/5
f 594/1/5 590/1/5 593/1/5
f 595/1/5 592/1/5 591/1/5
f 596/1/5 592/1/5 595/1/5
f 599/1/5 598/1/5 597/1/5
f 600/1/5 598/1/5 599/1/5
f 601/3/6 602/3/6 603/3/6
f 603/3/6 602/3/6 604/3/6
f 605/2/6 606/2/6 607/2/6
f 607/2/6 606/2/6 608/2/6
f 605/2/6 607/2/6 610/2/6
f 610/2/6 607/2/6 611/2/6
f 608/2/6 606/2/6 612/2/6
f 612/2/6 606/2/6 613/2/6
f 610/3/6 611/3/6 616/3/6
f 613/3/6 614/3/6 616/3/6
f 612/3/6 613/3/6 616/3/6
f 611/3/6 612/3/6 616/3/6
f 609/3/6 610/3/6 616/3/6
f 616/3/6 614/3/6 617/3/6
f 615/3/6 616/3/6 619/3/6
f 619/3/6 616/3/6 620/3/6
f 617/3/6 618/3/6 621/3/6
f 621/3/6 618/3/6 622/3/6
f 623/2/6 624/2/6 625/2/6
f 625/2/6 624/2/6 626/2/6
f 627/3/6 628/3/6 630/3/6
f 630/3/6 628/3/6 631/3/6
f 629/3/6 630/3/6 633/3/6
f 631/3/6 632/3/6 633/3/6
f 630/3/6 631/3/6 633/3/6
f 633/3/6 632/3/6 634/3/6
f 629/3/6 633/3/6 635/3/6
f 635/3/6 633/3/6 636/3/6
f 634/3/6 632/3/6 637/3/6
f 637/3/6 632/3/6 638/3/6
f 639/3/6 640/3/6 642/3/6
f 642/3/6 640/3/6 643/3/6
f 643/3/6 640/3/6 644/3/6
f 641/3/6 642/3/6 645/3/6
f 642/3/6 643/3/6 645/3/6
f 645/3/6 643/3/6 646/3/6
f 646/3/6 643/3/6 649/3/6
f 649/3/6 643/3/6 650/3/6
f 644/3/6 640/3/6 651/3/6
f 651/3/6 640/3/6 652/3/6
f 647/4/6 648/4/6 655/4/6
f 655/4/6 648/4/6 656/4/6
f 653/4/6 654/4/6 657/4/6
f 657/4/6 654/4/6 658/4/6
f 659/3/6 660/3/6 663/3/6
f 663/3/6 660/3/6 664/3/6
f 661/3/6 662/3/6 665/3/6
f 665/3/6 662/3/6 666/3/6
f 664/3/6 665/3/6 667/3/6
f 667/3/6 665/3/6 668/3/6
f 669/3/6 670/3/6 671/3/6
f 671/3/6 670/3/6 672/3/6
f 669/3/6 671/3/6 673/3/6
f 673/3/6 671/3/6 674/3/6
f 672/3/6 670/3/6 675/3/6
f 675/3/6 670/3/6 676/3/6
f 677/3/6 678/3/6 681/3/6
f 681/3/6 678/3/6 682/3/6
f 679/3/6 680/3/6 683/3/6
f 683/3/6 680/3/6 684/3/6
f 685/3/6 686/3/6 688/3/6
f 688/3/6 686/3/6 689/3/6
f 687/3/6 688/3/6 692/3/6
f 689/3/6 690/3/6 692/3/6
f 688/3/6 689/3/6 692/3/6
f 692/3/6 690/3/6 693/3/6
f 691/4/6 692/4/6 696/4/6
f 692/3/6 693/3/6 697/3/6
f 696/4/6 692/4/6 697/4/6
f 697/3/6 693/3/6 698/3/6
f 698/3/6 693/3/6 699/3/6
f 693/4/6 694/4/6 700/4/6
f 699/3/6 693/3/6 700/3/6
f 700/4/6 694/4/6 701/4/6
f 695/3/6 696/3/6 703/3/6
f 703/3/6 696/3/6 704/3/6
f 698/3/6 699/3/6 706/3/6
f 706/3/6 699/3/6 707/3/6
f 701/3/6 702/3/6 709/3/6
f 709/3/6 702/3/6 710/3/6
f 704/1/6 705/1/6 711/1/6
f 707/3/6 708/3/6 712/3/6
f 711/1/6 705/1/6 712/1/6
f 705/3/6 706/3/6 712/3/6
f 706/3/6 707/3/6 712/3/6
f 708/1/6 709/1/6 713/1/6
f 712/3/6 708/3/6 713/3/6
f 713/1/6 709/1/6 714/1/6
f 711/3/6 712/3/6 715/3/6
f 712/3/6 713/3/6 715/3/6
f 713/3/6 714/3/6 715/3/6
f 715/3/6 714/3/6 716/3/6
f 717/3/6 718/3/6 721/3/6
f 721/3/6 718/3/6 722/3/6
f 719/3/6 720/3/6 723/3/6
f 723/3/6 720/3/6 724/3/6
f 725/1/6 726/1/6 731/1/6
f 731/1/6 726/1/6 732/1/6
f 727/1/6 728/1/6 733/1/6
f 733/1/6 728/1/6 734/1/6
f 729/1/6 730/1/6 735/1/6
f 735/1/6 730/1/6 736/1/6
f 737/1/6 738/1/6 743/1/6
f 743/1/6 738/1/6 744/1/6
f 739/1/6 740/1/6 745/1/6
f 745/1/6 740/1/6 746/1/6
f 741/1/6 742/1/6 747/1/6
f 747/1/6 742/1/6 748/1/6
f 749/1/6 750/1/6 755/1/6
f 755/1/6 750/1/6 756/1/6
f 751/1/6 752/1/6 757/1/6
f 757/1/6 752/1/6 758/1/6
f 753/1/6 754/1/6 759/1/6
f 759/1/6 754/1/6 760/1/6
f 761/1/6 762/1/6 765/1/6
f 765/1/6 762/1/6 766/1/6
f 763/1/6 764/1/6 767/1/6
f 767/1/6 764/1/6 768/1/6
