# Blender v2.79 (sub 0) OBJ File: ''
# www.blender.org
mtllib untitled.mtl
o Cube
v 1.030451 -0.936775 -1.146874
v 1.030451 -0.936775 0.853126
v -0.969549 -0.936775 0.853126
v -0.969549 -0.936775 -1.146874
v 0.630451 1.063225 -0.746873
v 0.630451 1.063225 0.453127
v -0.569549 1.063225 0.453126
v -0.569549 1.063225 -0.746874
v 1.030452 1.063225 -1.146873
v 1.030450 1.063225 0.853127
v -0.969549 1.063225 -1.146874
v -0.969549 1.063225 0.853126
v -0.969550 3.063225 0.853126
v -0.969548 3.063225 -1.146874
v 1.030451 3.063225 0.853127
v 1.030451 3.063225 -1.146873
v 0.630451 3.063225 -0.746873
v 0.630451 3.063225 0.453127
v -0.569549 3.063225 -0.746874
v -0.569549 3.063225 0.453126
v -0.569549 5.063225 0.453126
v -0.569549 5.063225 -0.746874
v 0.630451 5.063225 0.453127
v 0.630451 5.063225 -0.746873
v -0.969550 5.063225 0.853126
v -0.969548 5.063225 -1.146874
v 1.030451 5.063225 0.853127
v 1.030451 5.063225 -1.146873
v 1.030452 7.063225 -1.146873
v 1.030450 7.063225 0.853127
v -0.969549 7.063225 -1.146874
v -0.969549 7.063225 0.853126
v -0.569549 7.063225 0.453126
v -0.569549 7.063225 -0.746874
v 0.630451 7.063225 0.453127
v 0.630451 7.063225 -0.746873
v 0.630451 9.063225 -0.746873
v 0.630451 9.063225 0.453126
v -0.569549 9.063225 -0.746874
v -0.569549 9.063225 0.453126
v 1.030452 9.063225 -1.146873
v 1.030450 9.063225 0.853127
v -0.969549 9.063225 -1.146874
v -0.969549 9.063225 0.853126
v 0.630451 10.063225 -0.746873
v 0.630451 10.063225 0.453126
v -0.569549 10.063225 -0.746874
v -0.569549 10.063225 0.453126
vn 0.0000 -1.0000 -0.0000
vn -1.0000 0.0000 -0.0000
vn 1.0000 -0.0000 0.0000
vn -0.0000 -0.0000 1.0000
vn 0.0000 0.0000 -1.0000
vn 0.0000 1.0000 0.0000
usemtl Material
s off
f 1//1 2//1 3//1 4//1
f 8//2 7//2 20//2 19//2
f 1//3 9//3 10//3 2//3
f 2//4 10//4 12//4 3//4
f 3//2 12//2 11//2 4//2
f 9//5 1//5 4//5 11//5
f 5//6 6//6 10//6 9//6
f 8//6 5//6 9//6 11//6
f 6//6 7//6 12//6 10//6
f 7//6 8//6 11//6 12//6
f 16//5 14//5 26//5 28//5
f 5//5 8//5 19//5 17//5
f 7//4 6//4 18//4 20//4
f 6//3 5//3 17//3 18//3
f 13//1 14//1 18//1 17//1
f 15//1 13//1 17//1 19//1
f 14//1 16//1 20//1 18//1
f 16//1 15//1 19//1 20//1
f 24//5 22//5 34//5 36//5
f 14//2 13//2 25//2 26//2
f 15//3 16//3 28//3 27//3
f 13//4 15//4 27//4 25//4
f 21//6 22//6 26//6 25//6
f 23//6 21//6 25//6 27//6
f 22//6 24//6 28//6 26//6
f 24//6 23//6 27//6 28//6
f 31//2 32//2 44//2 43//2
f 22//2 21//2 33//2 34//2
f 23//3 24//3 36//3 35//3
f 21//4 23//4 35//4 33//4
f 29//1 30//1 34//1 33//1
f 31//1 29//1 33//1 35//1
f 30//1 32//1 36//1 34//1
f 32//1 31//1 35//1 36//1
f 38//3 37//3 45//3 46//3
f 29//5 31//5 43//5 41//5
f 32//4 30//4 42//4 44//4
f 30//3 29//3 41//3 42//3
f 37//6 38//6 42//6 41//6
f 39//6 37//6 41//6 43//6
f 38//6 40//6 44//6 42//6
f 40//6 39//6 43//6 44//6
f 45//6 47//6 48//6 46//6
f 39//2 40//2 48//2 47//2
f 37//5 39//5 47//5 45//5
f 40//4 38//4 46//4 48//4
